<?xml version="1.0" encoding="utf-8"?>
<!-- Generator: Adobe Illustrator 28.2.0, SVG Export Plug-In . SVG Version: 6.00 Build 0)  -->
<svg version="1.1" id="Layer_1" xmlns="http://www.w3.org/2000/svg" xmlns:xlink="http://www.w3.org/1999/xlink" x="0px" y="0px"
	 viewBox="0 0 1250 1250" style="enable-background:new 0 0 1250 1250;" xml:space="preserve">
<style type="text/css">
	.st0{fill:#0052D9;}
	.st1{opacity:0.98;}
	.st2{fill:#FFFFFF;}
</style>
<g class="st1">
	<g>
		<path class="st2" d="M806,411.6l-102.1,0.1c-11,0-21.1,6.2-26.1,15.9L552.1,670.1c-5.1,9.8-15.2,15.9-26.2,15.9H444
			c-17.9,0-32.4,14.5-32.4,32.4V806c0,17.9,14.5,32.4,32.4,32.4h87.6c17.9,0,32.4-14.5,32.4-32.4v0c0-16.3,13.2-29.5,29.5-29.5l63,0
			c16.3,0,29.5,13.2,29.5,29.5v0.1c0,17.9,14.5,32.4,32.4,32.4h87.7c17.9,0,32.4-14.5,32.4-32.4v-68.8v-18.9V531.6v-75.8V444
			C838.5,426.1,823.9,411.6,806,411.6z M686,718.2c0,16.5-13.2,29.7-29.5,29.7h-63c-16.3,0-29.5-13.2-29.5-29.5v-3.5
			c0-4.7,1.1-9.4,3.3-13.5L686,471.7v245.6V718.2z"/>
	</g>
</g>
</svg>
