<?xml version="1.0" encoding="utf-8"?>
<!-- Generator: Adobe Illustrator 28.2.0, SVG Export Plug-In . SVG Version: 6.00 Build 0)  -->
<svg version="1.1" id="Layer_1" xmlns="http://www.w3.org/2000/svg" xmlns:xlink="http://www.w3.org/1999/xlink" x="0px" y="0px"
	 viewBox="0 0 2443.1 433.7" style="enable-background:new 0 0 2443.1 433.7;" xml:space="preserve">
<style type="text/css">
	.st0{fill:#0052D9;}
	.st1{opacity:0.98;}
	.st2{fill:#FFFFFF;}
</style>
<g>
	<g>
		<path class="st0" d="M400.7,0L297,0.1c-11.2,0-21.4,6.3-26.6,16.2L142.7,262.6c-5.2,9.9-15.4,16.2-26.6,16.2H32.9
			C14.8,278.8,0,293.5,0,311.7v89c0,18.2,14.8,32.9,32.9,32.9h89c18.2,0,32.9-14.8,32.9-32.9v0c0-16.6,13.4-30,30-30l64,0
			c16.6,0,30,13.4,30,30v0.1c0,18.2,14.7,32.9,32.9,32.9h89.1c18.2,0,32.9-14.7,32.9-32.9v-69.9v-19.2V121.9v-77v-12
			C433.7,14.8,418.9,0,400.7,0z M278.8,311.5c0,16.8-13.4,30.2-30,30.2h-64c-16.6,0-30-13.4-30-30v-3.6c0-4.8,1.1-9.5,3.3-13.8
			L278.8,61.1v249.5V311.5z"/>
	</g>
	<g>
		<g>
			<path class="st2" d="M734,17.1l160.8,410.8h-70.6L792.5,344h-184l-31.8,83.9h-70.6L666.3,17.1H734z M769.9,283.2L700.5,99.8
				L631,283.2H769.9z"/>
			<path class="st2" d="M912.2,127h63.6v45.1c16.2-27.8,48-50.9,96.6-50.9c61.9,0,115.1,38.8,115.1,129.6v177h-64.2V261.2
				c0-52.6-28.9-82.2-73.5-82.2c-43.4,0-74.1,29.5-74.1,82.2v166.6h-63.6V127z"/>
			<path class="st2" d="M1465.3,427.9v-48h-1.7c-11,23.7-49.2,53.8-104.1,53.8c-71.2,0-145.8-52.6-145.8-156.2
				c0-103.6,74.6-156.2,145.8-156.2c55,0,93.1,30.1,104.1,53.8h1.7V17.1h63.6v410.8H1465.3z M1371.6,375.8
				c48.6,0,95.5-33.6,95.5-98.4c0-64.8-46.9-98.4-95.5-98.4c-48,0-94.9,33.6-94.9,98.4C1276.7,342.2,1323.6,375.8,1371.6,375.8z"/>
			<path class="st2" d="M1555,277.4c0-101.2,79.3-156.2,157.4-156.2c78.1,0,157.4,55,157.4,156.2c0,101.2-79.3,156.2-157.4,156.2
				C1634.2,433.7,1555,378.7,1555,277.4z M1712.3,375.2c49.2,0,93.7-35.9,93.7-97.8s-44.5-97.8-93.7-97.8
				c-49.2,0-94.3,35.9-94.3,97.8S1663.2,375.2,1712.3,375.2z"/>
			<path class="st2" d="M1961.7,274l-106.5-147h72.9l70.6,100.1l70.6-100.1h72.9l-106.5,147l115.7,153.9h-74.6l-78.1-107l-78.1,107
				H1846L1961.7,274z"/>
			<path class="st2" d="M2127.7,277.4c0-103.6,74.6-156.2,145.8-156.2c55,0,93.1,30.1,104.1,53.8h1.7v-48h63.6v300.9h-63.6v-48h-1.7
				c-11,23.7-49.2,53.8-104.1,53.8C2202.4,433.7,2127.7,381,2127.7,277.4z M2285.7,375.8c48.6,0,95.5-33.6,95.5-98.4
				c0-64.8-46.9-98.4-95.5-98.4c-48,0-94.9,33.6-94.9,98.4C2190.8,342.2,2237.7,375.8,2285.7,375.8z"/>
		</g>
	</g>
</g>
</svg>
