<svg xmlns="http://www.w3.org/2000/svg" viewBox="0 0 256 256" width="256" height="256" role="img" aria-label="LinkedIn">
  <rect width="256" height="256" rx="60" fill="#0A66C2"/>
  <path fill="#FFFFFF" d="M83.5 201.3H51.9V101.1h31.6v100.2zM67.7 87.4C57.6 87.4 49.4 79 49.4 68.9s8.2-18.5 18.3-18.5 18.3 8.4 18.3 18.5-8.2 18.5-18.3 18.5zM201.3 201.3h-31.6v-48.8c0-11.6-.2-26.6-16.2-26.6-16.2 0-18.7 12.7-18.7 25.8v49.6h-31.6V101.1h30.3v13.7h.4c4.2-8 14.5-16.4 29.9-16.4 32 0 37.9 21.1 37.9 48.5v54.4z"/>
</svg>
